<mxfile host="65bd71144e">
    <diagram id="hbC4uzHOZqBioNfB1Z3J" name="Page-1">
        <mxGraphModel dx="452" dy="228" grid="1" gridSize="10" guides="1" tooltips="1" connect="1" arrows="1" fold="1" page="1" pageScale="1" pageWidth="850" pageHeight="1100" math="0" shadow="0">
            <root>
                <mxCell id="0"/>
                <mxCell id="1" parent="0"/>
                <mxCell id="4" value="DHCPv6 witchout tracking status&lt;br&gt;&amp;nbsp;&amp;nbsp;" style="text;html=1;align=center;verticalAlign=bottom;whiteSpace=wrap;rounded=0;fillColor=#0050ef;fontColor=#ffffff;strokeColor=#001DBC;" parent="1" vertex="1">
                    <mxGeometry x="244.62" y="80" width="255.38" height="50" as="geometry"/>
                </mxCell>
                <mxCell id="7" value="" style="points=[[0.03,0.03,0],[0.5,0,0],[0.97,0.03,0],[1,0.4,0],[0.97,0.745,0],[0.5,1,0],[0.03,0.745,0],[0,0.4,0]];verticalLabelPosition=bottom;sketch=0;html=1;verticalAlign=top;aspect=fixed;align=center;pointerEvents=1;shape=mxgraph.cisco19.workstation;fillColor=#6a00ff;strokeColor=#3700CC;fontColor=#ffffff;" parent="1" vertex="1">
                    <mxGeometry x="480" y="235" width="62.5" height="50" as="geometry"/>
                </mxCell>
                <mxCell id="9" value="" style="shape=image;verticalLabelPosition=bottom;labelBackgroundColor=default;verticalAlign=top;aspect=fixed;imageAspect=0;image=data:image/svg+xml,PHN2ZyB4bWxucz0iaHR0cDovL3d3dy53My5vcmcvMjAwMC9zdmciIHZpZXdCb3g9IjAgMCAxNiAxNiIgY2xhc3M9ImJpIGJpLXJvdXRlciIgZmlsbD0iY3VycmVudENvbG9yIiBoZWlnaHQ9IjE2IiB3aWR0aD0iMTYiIHN0eWxlPSJjb2xvcjogYmx1ZSI+IDxwYXRoIGZpbGw9ImJsdWUiIGQ9Ik01LjUyNSAzLjAyNWEzLjUgMy41IDAgMCAxIDQuOTUgMCAuNS41IDAgMSAwIC43MDctLjcwNyA0LjUgNC41IDAgMCAwLTYuMzY0IDAgLjUuNSAwIDAgMCAuNzA3LjcwN1oiLz4gPHBhdGggZmlsbD0iYmx1ZSIgZD0iTTYuOTQgNC40NGExLjUgMS41IDAgMCAxIDIuMTIgMCAuNS41IDAgMCAwIC43MDgtLjcwOCAyLjUgMi41IDAgMCAwLTMuNTM2IDAgLjUuNSAwIDAgMCAuNzA3LjcwN1pNMi41IDExYS41LjUgMCAxIDEgMC0xIC41LjUgMCAwIDEgMCAxWm00LjUtLjVhLjUuNSAwIDEgMCAxIDAgLjUuNSAwIDAgMC0xIDBabTIuNS41YS41LjUgMCAxIDEgMC0xIC41LjUgMCAwIDEgMCAxWm0xLjUtLjVhLjUuNSAwIDEgMCAxIDAgLjUuNSAwIDAgMC0xIDBabTIgMGEuNS41IDAgMSAwIDEgMCAuNS41IDAgMCAwLTEgMFoiLz4gPHBhdGggZmlsbD0iYmx1ZSIgZD0iTTIuOTc0IDIuMzQyYS41LjUgMCAxIDAtLjk0OC4zMTZMMy44MDYgOEgxLjVBMS41IDEuNSAwIDAgMCAwIDkuNXYyQTEuNSAxLjUgMCAwIDAgMS41IDEzSDJhLjUuNSAwIDAgMCAuNS41aDJBLjUuNSAwIDAgMCA1IDEzaDZhLjUuNSAwIDAgMCAuNS41aDJhLjUuNSAwIDAgMCAuNS0uNWguNWExLjUgMS41IDAgMCAwIDEuNS0xLjV2LTJBMS41IDEuNSAwIDAgMCAxNC41IDhoLTIuMzA2bDEuNzgtNS4zNDJhLjUuNSAwIDEgMC0uOTQ4LS4zMTZMMTEuMTQgOEg0Ljg2TDIuOTc0IDIuMzQyWk0xNC41IDlhLjUuNSAwIDAgMSAuNS41djJhLjUuNSAwIDAgMS0uNS41aC0xM2EuNS41IDAgMCAxLS41LS41di0yYS41LjUgMCAwIDEgLjUtLjVoMTNaIi8+IDxwYXRoIGZpbGw9ImJsdWUiIGQ9Ik04LjUgNS41YS41LjUgMCAxIDEtMSAwIC41LjUgMCAwIDEgMSAwWiIvPiA8L3N2Zz4=;" parent="1" vertex="1">
                    <mxGeometry x="200" y="230" width="60" height="60" as="geometry"/>
                </mxCell>
                <mxCell id="12" value="" style="rounded=1;whiteSpace=wrap;html=1;labelBackgroundColor=default;strokeColor=#0000FF;fontFamily=Helvetica;fontSize=12;fontColor=default;fillColor=none;dashed=1;dashPattern=8 8;strokeWidth=2;" parent="1" vertex="1">
                    <mxGeometry x="170" y="210" width="122" height="220" as="geometry"/>
                </mxCell>
                <mxCell id="13" value="" style="rounded=1;whiteSpace=wrap;html=1;labelBackgroundColor=default;strokeColor=#0000FF;fontFamily=Helvetica;fontSize=12;fontColor=default;fillColor=none;dashed=1;dashPattern=8 8;strokeWidth=2;" parent="1" vertex="1">
                    <mxGeometry x="443.25" y="210" width="146.75" height="300" as="geometry"/>
                </mxCell>
                <mxCell id="14" value="" style="endArrow=none;dashed=1;html=1;fontFamily=Helvetica;fontSize=12;fontColor=default;strokeWidth=4;fillColor=#6a00ff;strokeColor=#3333FF;" parent="1" edge="1">
                    <mxGeometry width="50" height="50" relative="1" as="geometry">
                        <mxPoint x="266" y="267" as="sourcePoint"/>
                        <mxPoint x="330" y="267" as="targetPoint"/>
                    </mxGeometry>
                </mxCell>
                <mxCell id="17" value="" style="endArrow=classic;html=1;strokeWidth=1;fontFamily=Helvetica;fontSize=12;fontColor=default;strokeColor=#0000FF;" parent="1" edge="1">
                    <mxGeometry width="50" height="50" relative="1" as="geometry">
                        <mxPoint x="460" y="320" as="sourcePoint"/>
                        <mxPoint x="270" y="320" as="targetPoint"/>
                    </mxGeometry>
                </mxCell>
                <mxCell id="19" value="Client" style="text;html=1;align=center;verticalAlign=middle;whiteSpace=wrap;rounded=0;labelBackgroundColor=none;fontFamily=Lucida Console;fontSize=12;strokeWidth=1;fontStyle=1;fontColor=#3333FF;" parent="1" vertex="1">
                    <mxGeometry x="482" y="284" width="60" height="30" as="geometry"/>
                </mxCell>
                <mxCell id="21" value="&lt;font style=&quot;font-size: 14px;&quot;&gt;G&lt;/font&gt;0/0" style="text;html=1;strokeColor=none;fillColor=none;align=center;verticalAlign=middle;whiteSpace=wrap;rounded=0;labelBackgroundColor=none;fontFamily=Lucida Console;fontSize=12;fontColor=#3333FF;" parent="1" vertex="1">
                    <mxGeometry x="254" y="270" width="40" height="20" as="geometry"/>
                </mxCell>
                <mxCell id="22" value="RS massage (request)" style="text;html=1;strokeColor=none;fillColor=none;align=center;verticalAlign=middle;whiteSpace=wrap;rounded=0;labelBackgroundColor=none;fontFamily=Lucida Console;fontSize=12;fontColor=#3333FF;" parent="1" vertex="1">
                    <mxGeometry x="294" y="294" width="151.25" height="30" as="geometry"/>
                </mxCell>
                <mxCell id="23" value="" style="verticalLabelPosition=bottom;align=center;labelBackgroundColor=none;verticalAlign=top;strokeWidth=2;strokeColor=#3333FF;shadow=0;dashed=0;shape=mxgraph.ios7.icons.mail;fontFamily=Lucida Console;fontSize=12;fontColor=#3333FF;fillColor=none;" parent="1" vertex="1">
                    <mxGeometry x="460" y="312.75" width="30" height="16.5" as="geometry"/>
                </mxCell>
                <mxCell id="26" value="" style="endArrow=classic;html=1;strokeWidth=1;fontFamily=Helvetica;fontSize=12;fontColor=default;strokeColor=#0000FF;" parent="1" edge="1">
                    <mxGeometry width="50" height="50" relative="1" as="geometry">
                        <mxPoint x="281" y="379" as="sourcePoint"/>
                        <mxPoint x="471" y="379" as="targetPoint"/>
                    </mxGeometry>
                </mxCell>
                <mxCell id="28" value="" style="verticalLabelPosition=bottom;align=center;labelBackgroundColor=none;verticalAlign=top;strokeWidth=2;strokeColor=#3333FF;shadow=0;dashed=0;shape=mxgraph.ios7.icons.mail;fontFamily=Lucida Console;fontSize=12;fontColor=#3333FF;fillColor=none;" parent="1" vertex="1">
                    <mxGeometry x="250" y="370" width="30" height="16.5" as="geometry"/>
                </mxCell>
                <mxCell id="29" value="&lt;b&gt;RS&lt;/b&gt;" style="text;html=1;strokeColor=none;fillColor=none;align=left;verticalAlign=middle;whiteSpace=wrap;rounded=0;labelBackgroundColor=none;fontFamily=Lucida Console;fontSize=12;fontColor=#3333FF;" parent="1" vertex="1">
                    <mxGeometry x="494" y="312" width="15" height="20" as="geometry"/>
                </mxCell>
                <mxCell id="48" value="&lt;div style=&quot;&quot;&gt;&lt;div style=&quot;&quot;&gt;RA massage (announcement)&lt;/div&gt;&lt;/div&gt;" style="text;html=1;strokeColor=none;fillColor=none;align=center;verticalAlign=middle;whiteSpace=wrap;rounded=0;labelBackgroundColor=none;fontFamily=Lucida Console;fontSize=10;fontColor=#3333FF;" parent="1" vertex="1">
                    <mxGeometry x="290.75" y="367" width="161.25" height="10" as="geometry"/>
                </mxCell>
                <mxCell id="49" value="&lt;div style=&quot;&quot;&gt;&lt;div style=&quot;&quot;&gt;&lt;div style=&quot;&quot;&gt;M flag=0 / O flag=0&lt;/div&gt;&lt;/div&gt;&lt;/div&gt;" style="text;html=1;strokeColor=none;fillColor=none;align=center;verticalAlign=middle;whiteSpace=wrap;rounded=0;labelBackgroundColor=none;fontFamily=Lucida Console;fontSize=10;fontColor=#3333FF;" parent="1" vertex="1">
                    <mxGeometry x="305" y="380.5" width="125.25" height="13.5" as="geometry"/>
                </mxCell>
                <mxCell id="51" value="" style="shape=callout;whiteSpace=wrap;html=1;perimeter=calloutPerimeter;fontSize=9;rotation=-180;position2=0.67;rounded=1;fillColor=#3333FF;" parent="1" vertex="1">
                    <mxGeometry x="500" y="300" width="120" height="164" as="geometry"/>
                </mxCell>
                <mxCell id="52" value="RA message contains some information about addressing, however I need contact DHCPv6- server for receiving the rest information, e.g. addresses DNS servers" style="text;html=1;strokeColor=none;fillColor=none;align=left;verticalAlign=middle;whiteSpace=wrap;rounded=0;labelBackgroundColor=none;fontFamily=Helvetica;fontSize=10;fontColor=#FFFFFF;" vertex="1" parent="1">
                    <mxGeometry x="509" y="340" width="105" height="120" as="geometry"/>
                </mxCell>
                <mxCell id="56" value="" style="verticalLabelPosition=bottom;html=1;verticalAlign=top;align=center;strokeColor=none;fillColor=#3333FF;shape=mxgraph.azure.server_rack;fontFamily=Helvetica;fontColor=#FFFFFF;" vertex="1" parent="1">
                    <mxGeometry x="520" y="130" width="50" height="50" as="geometry"/>
                </mxCell>
                <mxCell id="58" value="" style="sketch=0;pointerEvents=1;shadow=0;dashed=0;html=1;strokeColor=none;fillColor=#3333FF;labelPosition=center;verticalLabelPosition=bottom;verticalAlign=top;outlineConnect=0;align=center;shape=mxgraph.office.devices.switch;fontFamily=Helvetica;fontColor=#FFFFFF;" vertex="1" parent="1">
                    <mxGeometry x="325" y="257" width="55" height="18" as="geometry"/>
                </mxCell>
                <mxCell id="59" value="" style="endArrow=none;dashed=1;html=1;fontFamily=Helvetica;fontSize=12;fontColor=default;strokeWidth=4;fillColor=#6a00ff;strokeColor=#3333FF;" edge="1" parent="1" source="58">
                    <mxGeometry width="50" height="50" relative="1" as="geometry">
                        <mxPoint x="400" y="265.76" as="sourcePoint"/>
                        <mxPoint x="464" y="265.76" as="targetPoint"/>
                        <Array as="points">
                            <mxPoint x="430" y="266"/>
                        </Array>
                    </mxGeometry>
                </mxCell>
                <mxCell id="60" value="" style="endArrow=none;dashed=1;html=1;fontFamily=Helvetica;fontSize=12;fontColor=default;strokeWidth=4;fillColor=#6a00ff;strokeColor=#3333FF;" edge="1" parent="1">
                    <mxGeometry width="50" height="50" relative="1" as="geometry">
                        <mxPoint x="370" y="250" as="sourcePoint"/>
                        <mxPoint x="514.2500000000001" y="170" as="targetPoint"/>
                        <Array as="points">
                            <mxPoint x="480.25" y="170.24"/>
                        </Array>
                    </mxGeometry>
                </mxCell>
                <mxCell id="63" value="DHCPv6 Server" style="text;html=1;strokeColor=none;fillColor=none;align=center;verticalAlign=middle;whiteSpace=wrap;rounded=0;labelBackgroundColor=none;fontFamily=Lucida Console;fontSize=12;fontColor=#3333FF;fontStyle=1" vertex="1" parent="1">
                    <mxGeometry x="500" y="180" width="110.62" height="30" as="geometry"/>
                </mxCell>
                <mxCell id="64" value="" style="endArrow=classic;startArrow=classic;html=1;strokeColor=#3333FF;fontFamily=Lucida Console;fontColor=#FFFFFF;" edge="1" parent="1">
                    <mxGeometry width="50" height="50" relative="1" as="geometry">
                        <mxPoint x="452" y="480" as="sourcePoint"/>
                        <mxPoint x="588.75" y="480" as="targetPoint"/>
                    </mxGeometry>
                </mxCell>
                <mxCell id="65" value="DHCPv6 Process" style="text;html=1;strokeColor=none;fillColor=none;align=center;verticalAlign=middle;whiteSpace=wrap;rounded=0;labelBackgroundColor=none;fontFamily=Lucida Console;fontSize=12;fontColor=#3333FF;" vertex="1" parent="1">
                    <mxGeometry x="470" y="490" width="106" height="10" as="geometry"/>
                </mxCell>
            </root>
        </mxGraphModel>
    </diagram>
</mxfile>